<svg width="24" height="24" viewBox="0 0 24 24" fill="none" xmlns="http://www.w3.org/2000/svg">
<path d="M17.5733 22.1333L14.8933 17.4933C16.2 16.5333 17.1067 15.04 17.2933 13.3333H22.6667C22.44 17.0133 20.4667 20.2133 17.5733 22.1333ZM13.3333 5.37333V0C19.0667 0.346667 23.6533 4.93333 24 10.6667H18.6267C18.32 7.88 16.12 5.68 13.3333 5.37333ZM5.33333 12.6667C5.33333 13.52 5.50667 14.3333 5.84 15.0667L1.2 17.7467C0.426667 16.2133 0 14.4933 0 12.6667C0 6.62667 4.72 1.69333 10.6667 1.33333V6.70667C7.66667 7.04 5.33333 9.57333 5.33333 12.6667ZM11.3333 24C7.37333 24 3.89333 22 1.86667 18.9067L6.50667 16.2267C7.6 17.7067 9.33333 18.6667 11.3333 18.6667C12.1867 18.6667 13 18.4933 13.7333 18.16L16.4133 22.8C14.88 23.5733 13.16 24 11.3333 24Z" fill="#686B6F"/>
</svg>
